<svg width="24" height="24" viewBox="0 0 24 24" fill="none" xmlns="http://www.w3.org/2000/svg">
<path d="M9 6.25C8.58579 6.25 8.25 6.58579 8.25 7C8.25 7.41421 8.58579 7.75 9 7.75V6.25ZM15 7.75C15.4142 7.75 15.75 7.41421 15.75 7C15.75 6.58579 15.4142 6.25 15 6.25V7.75ZM14.25 17C14.25 17.4142 14.5858 17.75 15 17.75C15.4142 17.75 15.75 17.4142 15.75 17H14.25ZM15.75 14C15.75 13.5858 15.4142 13.25 15 13.25C14.5858 13.25 14.25 13.5858 14.25 14H15.75ZM12 16.25C11.5858 16.25 11.25 16.5858 11.25 17C11.25 17.4142 11.5858 17.75 12 17.75V16.25ZM12.01 17.75C12.4242 17.75 12.76 17.4142 12.76 17C12.76 16.5858 12.4242 16.25 12.01 16.25V17.75ZM9 16.25C8.58579 16.25 8.25 16.5858 8.25 17C8.25 17.4142 8.58579 17.75 9 17.75V16.25ZM9.01 17.75C9.42422 17.75 9.76 17.4142 9.76 17C9.76 16.5858 9.42422 16.25 9.01 16.25V17.75ZM9 13.25C8.58579 13.25 8.25 13.5858 8.25 14C8.25 14.4142 8.58579 14.75 9 14.75V13.25ZM9.01 14.75C9.42422 14.75 9.76 14.4142 9.76 14C9.76 13.5858 9.42422 13.25 9.01 13.25V14.75ZM12 13.25C11.5858 13.25 11.25 13.5858 11.25 14C11.25 14.4142 11.5858 14.75 12 14.75V13.25ZM12.01 14.75C12.4242 14.75 12.76 14.4142 12.76 14C12.76 13.5858 12.4242 13.25 12.01 13.25V14.75ZM15 10.25C14.5858 10.25 14.25 10.5858 14.25 11C14.25 11.4142 14.5858 11.75 15 11.75V10.25ZM15.01 11.75C15.4242 11.75 15.76 11.4142 15.76 11C15.76 10.5858 15.4242 10.25 15.01 10.25V11.75ZM12 10.25C11.5858 10.25 11.25 10.5858 11.25 11C11.25 11.4142 11.5858 11.75 12 11.75V10.25ZM12.01 11.75C12.4242 11.75 12.76 11.4142 12.76 11C12.76 10.5858 12.4242 10.25 12.01 10.25V11.75ZM9 10.25C8.58579 10.25 8.25 10.5858 8.25 11C8.25 11.4142 8.58579 11.75 9 11.75V10.25ZM9.01 11.75C9.42422 11.75 9.76 11.4142 9.76 11C9.76 10.5858 9.42422 10.25 9.01 10.25V11.75ZM7 3.75H17V2.25H7V3.75ZM18.25 5V19H19.75V5H18.25ZM17 20.25H7V21.75H17V20.25ZM5.75 19V5H4.25V19H5.75ZM7 20.25C6.30964 20.25 5.75 19.6904 5.75 19H4.25C4.25 20.5188 5.48122 21.75 7 21.75V20.25ZM18.25 19C18.25 19.6904 17.6904 20.25 17 20.25V21.75C18.5188 21.75 19.75 20.5188 19.75 19H18.25ZM17 3.75C17.6904 3.75 18.25 4.30964 18.25 5H19.75C19.75 3.48122 18.5188 2.25 17 2.25V3.75ZM7 2.25C5.48122 2.25 4.25 3.48122 4.25 5H5.75C5.75 4.30964 6.30964 3.75 7 3.75V2.25ZM9 7.75H15V6.25H9V7.75ZM15.75 17V14H14.25V17H15.75ZM12 17.75H12.01V16.25H12V17.75ZM9 17.75H9.01V16.25H9V17.75ZM9 14.75H9.01V13.25H9V14.75ZM12 14.75H12.01V13.25H12V14.75ZM15 11.75H15.01V10.25H15V11.75ZM12 11.75H12.01V10.25H12V11.75ZM9 11.75H9.01V10.25H9V11.75Z" fill="black"/>
</svg>
