<svg width="24" height="24" viewBox="0 0 24 24" fill="none" xmlns="http://www.w3.org/2000/svg">
<path d="M12 11.25C11.5858 11.25 11.25 11.5858 11.25 12C11.25 12.4142 11.5858 12.75 12 12.75V11.25ZM15 12.75C15.4142 12.75 15.75 12.4142 15.75 12C15.75 11.5858 15.4142 11.25 15 11.25V12.75ZM12 15.25C11.5858 15.25 11.25 15.5858 11.25 16C11.25 16.4142 11.5858 16.75 12 16.75V15.25ZM15 16.75C15.4142 16.75 15.75 16.4142 15.75 16C15.75 15.5858 15.4142 15.25 15 15.25V16.75ZM9 11.25C8.58579 11.25 8.25 11.5858 8.25 12C8.25 12.4142 8.58579 12.75 9 12.75V11.25ZM9.01 12.75C9.42421 12.75 9.76 12.4142 9.76 12C9.76 11.5858 9.42421 11.25 9.01 11.25V12.75ZM9 15.25C8.58579 15.25 8.25 15.5858 8.25 16C8.25 16.4142 8.58579 16.75 9 16.75V15.25ZM9.01 16.75C9.42421 16.75 9.76 16.4142 9.76 16C9.76 15.5858 9.42421 15.25 9.01 15.25V16.75ZM18.25 7V19H19.75V7H18.25ZM17 20.25H7V21.75H17V20.25ZM5.75 19V7H4.25V19H5.75ZM7 5.75H9V4.25H7V5.75ZM15 5.75H17V4.25H15V5.75ZM7 20.25C6.30964 20.25 5.75 19.6904 5.75 19H4.25C4.25 20.5188 5.48122 21.75 7 21.75V20.25ZM18.25 19C18.25 19.6904 17.6904 20.25 17 20.25V21.75C18.5188 21.75 19.75 20.5188 19.75 19H18.25ZM19.75 7C19.75 5.48122 18.5188 4.25 17 4.25V5.75C17.6904 5.75 18.25 6.30964 18.25 7H19.75ZM5.75 7C5.75 6.30964 6.30964 5.75 7 5.75V4.25C5.48122 4.25 4.25 5.48122 4.25 7H5.75ZM12 12.75H15V11.25H12V12.75ZM12 16.75H15V15.25H12V16.75ZM11 3.75H13V2.25H11V3.75ZM13 6.25H11V7.75H13V6.25ZM11 6.25C10.3096 6.25 9.75 5.69036 9.75 5H8.25C8.25 6.51878 9.48122 7.75 11 7.75V6.25ZM14.25 5C14.25 5.69036 13.6904 6.25 13 6.25V7.75C14.5188 7.75 15.75 6.51878 15.75 5H14.25ZM13 3.75C13.6904 3.75 14.25 4.30964 14.25 5H15.75C15.75 3.48122 14.5188 2.25 13 2.25V3.75ZM11 2.25C9.48122 2.25 8.25 3.48122 8.25 5H9.75C9.75 4.30964 10.3096 3.75 11 3.75V2.25ZM9 12.75H9.01V11.25H9V12.75ZM9 16.75H9.01V15.25H9V16.75Z" fill="black"/>
</svg>
