<svg width="24" height="24" viewBox="0 0 24 24" fill="none" xmlns="http://www.w3.org/2000/svg">
<path d="M18.25 7V19H19.75V7H18.25ZM17 20.25H7V21.75H17V20.25ZM5.75 19V7H4.25V19H5.75ZM7 5.75H9V4.25H7V5.75ZM15 5.75H17V4.25H15V5.75ZM7 20.25C6.30964 20.25 5.75 19.6904 5.75 19H4.25C4.25 20.5188 5.48122 21.75 7 21.75V20.25ZM18.25 19C18.25 19.6904 17.6904 20.25 17 20.25V21.75C18.5188 21.75 19.75 20.5188 19.75 19H18.25ZM19.75 7C19.75 5.48122 18.5188 4.25 17 4.25V5.75C17.6904 5.75 18.25 6.30964 18.25 7H19.75ZM5.75 7C5.75 6.30964 6.30964 5.75 7 5.75V4.25C5.48122 4.25 4.25 5.48122 4.25 7H5.75ZM11 3.75H13V2.25H11V3.75ZM13 6.25H11V7.75H13V6.25ZM11 6.25C10.3096 6.25 9.75 5.69036 9.75 5H8.25C8.25 6.51878 9.48122 7.75 11 7.75V6.25ZM14.25 5C14.25 5.69036 13.6904 6.25 13 6.25V7.75C14.5188 7.75 15.75 6.51878 15.75 5H14.25ZM13 3.75C13.6904 3.75 14.25 4.30964 14.25 5H15.75C15.75 3.48122 14.5188 2.25 13 2.25V3.75ZM11 2.25C9.48122 2.25 8.25 3.48122 8.25 5H9.75C9.75 4.30964 10.3096 3.75 11 3.75V2.25Z" fill="black"/>
</svg>
