<svg width="24" height="24" viewBox="0 0 24 24" fill="none" xmlns="http://www.w3.org/2000/svg">
<path d="M12 3L12.3354 2.32918C12.1243 2.22361 11.8757 2.22361 11.6646 2.32918L12 3ZM20 7H20.75C20.75 6.71592 20.5895 6.45622 20.3354 6.32918L20 7ZM4 7L3.66459 6.32918C3.4105 6.45622 3.25 6.71592 3.25 7H4ZM20 17L20.3354 17.6708C20.5895 17.5438 20.75 17.2841 20.75 17H20ZM12 21L11.6646 21.6708C11.8757 21.7764 12.1243 21.7764 12.3354 21.6708L12 21ZM4 17H3.25C3.25 17.2841 3.4105 17.5438 3.66459 17.6708L4 17ZM11.6646 3.67082L19.6646 7.67082L20.3354 6.32918L12.3354 2.32918L11.6646 3.67082ZM19.6646 6.32918L11.6646 10.3292L12.3354 11.6708L20.3354 7.67082L19.6646 6.32918ZM12.3354 10.3292L4.33541 6.32918L3.66459 7.67082L11.6646 11.6708L12.3354 10.3292ZM4.33541 7.67082L12.3354 3.67082L11.6646 2.32918L3.66459 6.32918L4.33541 7.67082ZM19.6646 16.3292L11.6646 20.3292L12.3354 21.6708L20.3354 17.6708L19.6646 16.3292ZM12.3354 20.3292L4.33541 16.3292L3.66459 17.6708L11.6646 21.6708L12.3354 20.3292ZM4.75 17V7H3.25V17H4.75ZM20.75 17V7H19.25V17H20.75ZM11.25 11V21H12.75V11H11.25Z" fill="black"/>
</svg>
