<svg width="24" height="24" viewBox="0 0 24 24" fill="none" xmlns="http://www.w3.org/2000/svg">
<path d="M13.2929 3.29289L12.7626 3.82322L12.7626 3.82322L13.2929 3.29289ZM18.7071 8.70711L19.2374 8.17678L19.2374 8.17678L18.7071 8.70711ZM10 20.25C9.58579 20.25 9.25 20.5858 9.25 21C9.25 21.4142 9.58579 21.75 10 21.75V20.25ZM4.25 16C4.25 16.4142 4.58579 16.75 5 16.75C5.41421 16.75 5.75 16.4142 5.75 16H4.25ZM4.46967 20.4697C4.17678 20.7626 4.17678 21.2374 4.46967 21.5303C4.76256 21.8232 5.23744 21.8232 5.53033 21.5303L4.46967 20.4697ZM7 3.75H12.5858V2.25H7V3.75ZM18.25 9.41421V19H19.75V9.41421H18.25ZM12.7626 3.82322L18.1768 9.23744L19.2374 8.17678L13.8232 2.76256L12.7626 3.82322ZM19.75 9.41421C19.75 8.95009 19.5656 8.50497 19.2374 8.17678L18.1768 9.23744C18.2237 9.28432 18.25 9.34791 18.25 9.41421H19.75ZM12.5858 3.75C12.6521 3.75 12.7157 3.77634 12.7626 3.82322L13.8232 2.76256C13.495 2.43437 13.0499 2.25 12.5858 2.25V3.75ZM17 21.75C18.5188 21.75 19.75 20.5188 19.75 19H18.25C18.25 19.6904 17.6904 20.25 17 20.25V21.75ZM5.75 5C5.75 4.30964 6.30964 3.75 7 3.75V2.25C5.48122 2.25 4.25 3.48122 4.25 5H5.75ZM17 20.25H10V21.75H17V20.25ZM5.75 16V5H4.25V16H5.75ZM14.25 14C14.25 15.2426 13.2426 16.25 12 16.25V17.75C14.0711 17.75 15.75 16.0711 15.75 14H14.25ZM9.75 14C9.75 12.7574 10.7574 11.75 12 11.75V10.25C9.92893 10.25 8.25 11.9289 8.25 14H9.75ZM12 11.75C13.2426 11.75 14.25 12.7574 14.25 14H15.75C15.75 11.9289 14.0711 10.25 12 10.25V11.75ZM9.34835 15.591L4.46967 20.4697L5.53033 21.5303L10.409 16.6517L9.34835 15.591ZM12 16.25C11.3785 16.25 10.817 15.999 10.409 15.591L9.34835 16.6517C10.0261 17.3294 10.9647 17.75 12 17.75V16.25ZM10.409 15.591C10.001 15.183 9.75 14.6215 9.75 14H8.25C8.25 15.0353 8.67055 15.9739 9.34835 16.6517L10.409 15.591Z" fill="black"/>
</svg>
