<svg width="24" height="24" viewBox="0 0 24 24" fill="none" xmlns="http://www.w3.org/2000/svg">
<path d="M12.7499 11C12.7499 10.5858 12.4141 10.25 11.9999 10.25C11.5857 10.25 11.2499 10.5858 11.2499 11H12.7499ZM8.61223 20.1719C8.39168 20.5225 8.49711 20.9855 8.84772 21.2061C9.19833 21.4266 9.66135 21.3212 9.88191 20.9706L8.61223 20.1719ZM5.8613 18.4413L5.22647 18.042L5.22646 18.042L5.8613 18.4413ZM5.16203 18.1474C4.95052 18.5035 5.06777 18.9637 5.42391 19.1752C5.78005 19.3867 6.24022 19.2695 6.45173 18.9133L5.16203 18.1474ZM13.0087 20.5077C12.8231 20.878 12.9729 21.3286 13.3433 21.5142C13.7136 21.6997 14.1642 21.5499 14.3498 21.1796L13.0087 20.5077ZM15.8924 17.2042C16.0052 16.8057 15.7735 16.3911 15.3749 16.2783C14.9764 16.1656 14.5618 16.3972 14.4491 16.7958L15.8924 17.2042ZM15.0535 13.8985C14.9975 14.3089 15.2847 14.687 15.6951 14.7431C16.1055 14.7992 16.4837 14.5119 16.5397 14.1015L15.0535 13.8985ZM18.2883 17.9266C18.1749 18.325 18.406 18.7399 18.8043 18.8533C19.2027 18.9667 19.6176 18.7357 19.731 18.3373L18.2883 17.9266ZM2.32539 15.0364C2.14439 15.409 2.2997 15.8577 2.67227 16.0387C3.04485 16.2197 3.49361 16.0644 3.67461 15.6919L2.32539 15.0364ZM7.62446 3.42105C7.26591 3.62846 7.14339 4.08726 7.3508 4.4458C7.5582 4.80435 8.017 4.92687 8.37554 4.71946L7.62446 3.42105ZM5.71946 7.37554C5.92687 7.017 5.80435 6.5582 5.4458 6.3508C5.08726 6.14339 4.62846 6.26591 4.42105 6.62446L5.71946 7.37554ZM11.2499 11C11.2499 14.3718 10.2832 17.5155 8.61223 20.1719L9.88191 20.9706C11.699 18.082 12.7499 14.6626 12.7499 11H11.2499ZM16.7499 11C16.7499 8.37665 14.6233 6.25 11.9999 6.25V7.75C13.7948 7.75 15.2499 9.20507 15.2499 11H16.7499ZM7.24991 11C7.24991 13.5964 6.50791 16.0049 5.22647 18.042L6.49614 18.8407C7.92369 16.5714 8.74991 13.8871 8.74991 11H7.24991ZM11.9999 6.25C9.37655 6.25 7.24991 8.37665 7.24991 11H8.74991C8.74991 9.20507 10.205 7.75 11.9999 7.75V6.25ZM5.22646 18.042C5.20448 18.0769 5.18301 18.1121 5.16203 18.1474L6.45173 18.9133C6.46617 18.889 6.48098 18.8648 6.49614 18.8407L5.22646 18.042ZM14.3498 21.1796C14.9824 19.9168 15.5011 18.587 15.8924 17.2042L14.4491 16.7958C14.0837 18.0868 13.5994 19.3284 13.0087 20.5077L14.3498 21.1796ZM16.5397 14.1015C16.6783 13.0866 16.7499 12.0511 16.7499 11H15.2499C15.2499 11.983 15.183 12.9506 15.0535 13.8985L16.5397 14.1015ZM20.75 11C20.75 6.16751 16.8325 2.25 12 2.25V3.75C16.0041 3.75 19.25 6.99594 19.25 11H20.75ZM19.731 18.3373C20.3949 16.0049 20.75 13.5433 20.75 11H19.25C19.25 13.403 18.9145 15.7265 18.2883 17.9266L19.731 18.3373ZM3.25 11C3.25 12.4487 2.91752 13.8175 2.32539 15.0364L3.67461 15.6919C4.3638 14.2732 4.75 12.6806 4.75 11H3.25ZM12 2.25C10.4075 2.25 8.91223 2.67612 7.62446 3.42105L8.37554 4.71946C9.44116 4.10304 10.6782 3.75 12 3.75V2.25ZM4.42105 6.62446C3.67612 7.91223 3.25 9.40749 3.25 11H4.75C4.75 9.67821 5.10304 8.44116 5.71946 7.37554L4.42105 6.62446Z" fill="black"/>
</svg>
