<svg width="24" height="24" viewBox="0 0 24 24" fill="none" xmlns="http://www.w3.org/2000/svg">
<path d="M9 5L9.53033 4.46967L9.31066 4.25H9V5ZM11 7L10.4697 7.53033L10.6893 7.75H11V7ZM16.25 10C16.25 10.4142 16.5858 10.75 17 10.75C17.4142 10.75 17.75 10.4142 17.75 10H16.25ZM3.75 17V7H2.25V17H3.75ZM5 5.75H9V4.25H5V5.75ZM8.46967 5.53033L10.4697 7.53033L11.5303 6.46967L9.53033 4.46967L8.46967 5.53033ZM11 7.75H15V6.25H11V7.75ZM15 7.75C15.6904 7.75 16.25 8.30964 16.25 9H17.75C17.75 7.48122 16.5188 6.25 15 6.25V7.75ZM3.75 7C3.75 6.30964 4.30964 5.75 5 5.75V4.25C3.48122 4.25 2.25 5.48122 2.25 7H3.75ZM2.25 17C2.25 18.5188 3.48122 19.75 5 19.75V18.25C4.30964 18.25 3.75 17.6904 3.75 17H2.25ZM16.25 9V10H17.75V9H16.25ZM7.75 12C7.75 11.3096 8.30964 10.75 9 10.75V9.25C7.48122 9.25 6.25 10.4812 6.25 12H7.75ZM9 10.75H19V9.25H9V10.75ZM19 10.75C19.6904 10.75 20.25 11.3096 20.25 12H21.75C21.75 10.4812 20.5188 9.25 19 9.25V10.75ZM20.25 12V17H21.75V12H20.25ZM20.25 17C20.25 17.6904 19.6904 18.25 19 18.25V19.75C20.5188 19.75 21.75 18.5188 21.75 17H20.25ZM19 18.25H5V19.75H19V18.25ZM5 19.75C6.51878 19.75 7.75 18.5188 7.75 17H6.25C6.25 17.6904 5.69036 18.25 5 18.25V19.75ZM7.75 17V12H6.25V17H7.75Z" fill="black"/>
</svg>
