<svg width="24" height="24" viewBox="0 0 24 24" fill="none" xmlns="http://www.w3.org/2000/svg">
<path d="M20.2677 3.73223L20.798 3.2019L20.798 3.2019L20.2677 3.73223ZM6.5 21.0355V21.7855C6.69891 21.7855 6.88968 21.7065 7.03033 21.5658L6.5 21.0355ZM3 21.0355H2.25C2.25 21.4497 2.58579 21.7855 3 21.7855V21.0355ZM3 17.4644L2.46967 16.9341C2.32902 17.0747 2.25 17.2655 2.25 17.4644H3ZM17.2625 4.26256C17.9459 3.57915 19.054 3.57915 19.7374 4.26256L20.798 3.2019C19.5288 1.9327 17.4711 1.9327 16.2018 3.2019L17.2625 4.26256ZM19.7374 4.26256C20.4208 4.94598 20.4208 6.05402 19.7374 6.73744L20.798 7.7981C22.0672 6.52889 22.0672 4.47111 20.798 3.2019L19.7374 4.26256ZM19.7374 6.73744L5.96967 20.5051L7.03033 21.5658L20.798 7.7981L19.7374 6.73744ZM6.5 20.2855H3V21.7855H6.5V20.2855ZM16.2018 3.2019L2.46967 16.9341L3.53033 17.9947L17.2625 4.26256L16.2018 3.2019ZM2.25 17.4644V21.0355H3.75V17.4644H2.25ZM14.7018 5.76256L18.2374 9.2981L19.298 8.23744L15.7625 4.7019L14.7018 5.76256Z" fill="black"/>
</svg>
