<svg width="24" height="24" viewBox="0 0 24 24" fill="none" xmlns="http://www.w3.org/2000/svg">
<path d="M20 21L19.6646 21.6708C19.8971 21.7871 20.1732 21.7746 20.3943 21.638C20.6154 21.5013 20.75 21.2599 20.75 21H20ZM4 21H3.25C3.25 21.2599 3.38459 21.5013 3.6057 21.638C3.82681 21.7746 4.10292 21.7871 4.33541 21.6708L4 21ZM12 21L11.6646 21.6708C11.8757 21.7764 12.1243 21.7764 12.3354 21.6708L12 21ZM8 19L8.33541 18.3292C8.12426 18.2236 7.87574 18.2236 7.66459 18.3292L8 19ZM16 19L16.3354 18.3292C16.1243 18.2236 15.8757 18.2236 15.6646 18.3292L16 19ZM15.25 15C15.25 15.4142 15.5858 15.75 16 15.75C16.4142 15.75 16.75 15.4142 16.75 15H15.25ZM8 10L7.46967 9.46967C7.17678 9.76256 7.17678 10.2374 7.46967 10.5303L8 10ZM10.4697 13.5303C10.7626 13.8232 11.2374 13.8232 11.5303 13.5303C11.8232 13.2374 11.8232 12.7626 11.5303 12.4697L10.4697 13.5303ZM11.5303 7.53033C11.8232 7.23744 11.8232 6.76256 11.5303 6.46967C11.2374 6.17678 10.7626 6.17678 10.4697 6.46967L11.5303 7.53033ZM6 3.75H18V2.25H6V3.75ZM19.25 5V21H20.75V5H19.25ZM4.75 21V5H3.25V21H4.75ZM12.3354 20.3292L8.33541 18.3292L7.66459 19.6708L11.6646 21.6708L12.3354 20.3292ZM7.66459 18.3292L3.66459 20.3292L4.33541 21.6708L8.33541 19.6708L7.66459 18.3292ZM20.3354 20.3292L16.3354 18.3292L15.6646 19.6708L19.6646 21.6708L20.3354 20.3292ZM15.6646 18.3292L11.6646 20.3292L12.3354 21.6708L16.3354 19.6708L15.6646 18.3292ZM18 3.75C18.6904 3.75 19.25 4.30964 19.25 5H20.75C20.75 3.48122 19.5188 2.25 18 2.25V3.75ZM6 2.25C4.48122 2.25 3.25 3.48122 3.25 5H4.75C4.75 4.30964 5.30964 3.75 6 3.75V2.25ZM16.75 15V14H15.25V15H16.75ZM12 9.25H8V10.75H12V9.25ZM16.75 14C16.75 11.3766 14.6234 9.25 12 9.25V10.75C13.7949 10.75 15.25 12.2051 15.25 14H16.75ZM11.5303 12.4697L8.53033 9.46967L7.46967 10.5303L10.4697 13.5303L11.5303 12.4697ZM8.53033 10.5303L11.5303 7.53033L10.4697 6.46967L7.46967 9.46967L8.53033 10.5303Z" fill="black"/>
</svg>
