<svg width="24" height="24" viewBox="0 0 24 24" fill="none" xmlns="http://www.w3.org/2000/svg">
<path d="M7.46967 15.4697C7.17678 15.7626 7.17678 16.2374 7.46967 16.5303C7.76256 16.8232 8.23744 16.8232 8.53033 16.5303L7.46967 15.4697ZM15.25 11C15.25 12.2426 14.2426 13.25 13 13.25V14.75C15.0711 14.75 16.75 13.0711 16.75 11H15.25ZM10.75 11C10.75 9.75736 11.7574 8.75 13 8.75V7.25C10.9289 7.25 9.25 8.92893 9.25 11H10.75ZM13 8.75C14.2426 8.75 15.25 9.75736 15.25 11H16.75C16.75 8.92893 15.0711 7.25 13 7.25V8.75ZM10.3483 12.591L7.46967 15.4697L8.53033 16.5303L11.409 13.6517L10.3483 12.591ZM13 13.25C12.3785 13.25 11.817 12.999 11.409 12.591L10.3483 13.6517C11.0261 14.3294 11.9647 14.75 13 14.75V13.25ZM11.409 12.591C11.001 12.183 10.75 11.6215 10.75 11H9.25C9.25 12.0353 9.67055 12.9739 10.3483 13.6517L11.409 12.591ZM20.25 12C20.25 16.5563 16.5563 20.25 12 20.25V21.75C17.3848 21.75 21.75 17.3848 21.75 12H20.25ZM12 20.25C7.44365 20.25 3.75 16.5563 3.75 12H2.25C2.25 17.3848 6.61522 21.75 12 21.75V20.25ZM3.75 12C3.75 7.44365 7.44365 3.75 12 3.75V2.25C6.61522 2.25 2.25 6.61522 2.25 12H3.75ZM12 3.75C16.5563 3.75 20.25 7.44365 20.25 12H21.75C21.75 6.61522 17.3848 2.25 12 2.25V3.75Z" fill="black"/>
</svg>
