<svg width="20" height="20" viewBox="0 0 20 20" fill="none" xmlns="http://www.w3.org/2000/svg">
<path fill-rule="evenodd" clip-rule="evenodd" d="M5.05025 3.63591C5.44078 4.02644 5.44078 4.6596 5.05025 5.05012C2.31658 7.78379 2.31658 12.2159 5.05025 14.9496C5.44078 15.3401 5.44078 15.9733 5.05025 16.3638C4.65973 16.7544 4.02656 16.7544 3.63604 16.3638C0.12132 12.8491 0.12132 7.15063 3.63604 3.63591C4.02656 3.24539 4.65973 3.24539 5.05025 3.63591ZM14.9498 3.63614C15.3403 3.24562 15.9735 3.24562 16.364 3.63614C19.8787 7.15086 19.8787 12.8493 16.364 16.3641C15.9735 16.7546 15.3403 16.7546 14.9498 16.3641C14.5592 15.9735 14.5592 15.3404 14.9498 14.9499C17.6834 12.2162 17.6834 7.78403 14.9498 5.05036C14.5592 4.65983 14.5592 4.02667 14.9498 3.63614ZM7.87869 6.46434C8.26921 6.85486 8.26921 7.48803 7.87869 7.87855C6.70711 9.05012 6.70711 10.9496 7.87869 12.1212C8.26921 12.5117 8.26921 13.1449 7.87868 13.5354C7.48816 13.9259 6.855 13.9259 6.46447 13.5354C4.51185 11.5828 4.51185 8.41696 6.46447 6.46434C6.855 6.07381 7.48816 6.07381 7.87869 6.46434ZM12.1213 6.46457C12.5119 6.07405 13.145 6.07405 13.5355 6.46457C15.4882 8.41719 15.4882 11.583 13.5355 13.5356C13.145 13.9262 12.5119 13.9262 12.1213 13.5356C11.7308 13.1451 11.7308 12.5119 12.1213 12.1214C13.2929 10.9499 13.2929 9.05036 12.1213 7.87878C11.7308 7.48826 11.7308 6.85509 12.1213 6.46457ZM10 9.0001C10.5523 9.0001 11 9.44782 11 10.0001V10.0101C11 10.5624 10.5523 11.0101 10 11.0101C9.44772 11.0101 9 10.5624 9 10.0101V10.0001C9 9.44782 9.44772 9.0001 10 9.0001Z" fill="black"/>
</svg>
