<svg width="24" height="24" viewBox="0 0 24 24" fill="none" xmlns="http://www.w3.org/2000/svg">
<path d="M18.8943 5.10572C18.6014 4.81282 18.1265 4.81282 17.8336 5.10572C17.5407 5.39861 17.5407 5.87348 17.8336 6.16638L18.8943 5.10572ZM18.364 18.364L17.8336 18.8943L17.8336 18.8943L18.364 18.364ZM16.0659 7.93414C15.773 7.64125 15.2981 7.64125 15.0052 7.93414C14.7123 8.22704 14.7123 8.70191 15.0052 8.9948L16.0659 7.93414ZM15.5355 15.5355L15.0052 16.0659L15.0052 16.0659L15.5355 15.5355ZM7.93414 16.0659C8.22703 16.3588 8.7019 16.3588 8.9948 16.0659C9.28769 15.773 9.28769 15.2981 8.9948 15.0052L7.93414 16.0659ZM7.79246 12.6013C7.73423 12.1912 7.35457 11.906 6.94447 11.9642C6.53437 12.0224 6.24912 12.4021 6.30736 12.8122L7.79246 12.6013ZM5.10571 18.8943C5.3986 19.1872 5.87348 19.1872 6.16637 18.8943C6.45926 18.6014 6.45926 18.1265 6.16637 17.8336L5.10571 18.8943ZM4.18006 9.36489C4.312 8.97225 4.10067 8.54699 3.70803 8.41505C3.31539 8.28311 2.89014 8.49444 2.75819 8.88708L4.18006 9.36489ZM3.53033 2.46967C3.23744 2.17678 2.76256 2.17678 2.46967 2.46967C2.17678 2.76256 2.17678 3.23744 2.46967 3.53033L3.53033 2.46967ZM20.4697 21.5303C20.7626 21.8232 21.2374 21.8232 21.5303 21.5303C21.8232 21.2374 21.8232 20.7626 21.5303 20.4697L20.4697 21.5303ZM17.8336 6.16638C21.0555 9.3882 21.0555 14.6118 17.8336 17.8336L18.8943 18.8943C22.7019 15.0867 22.7019 8.91333 18.8943 5.10572L17.8336 6.16638ZM15.0052 8.9948C16.6649 10.6545 16.6649 13.3455 15.0052 15.0052L16.0659 16.0659C18.3114 13.8204 18.3114 10.1797 16.0659 7.93414L15.0052 8.9948ZM12 11.75C12.1381 11.75 12.25 11.8619 12.25 12H13.75C13.75 11.0335 12.9665 10.25 12 10.25V11.75ZM8.9948 15.0052C8.31752 14.3279 7.91736 13.481 7.79246 12.6013L6.30736 12.8122C6.47637 14.0025 7.01925 15.151 7.93414 16.0659L8.9948 15.0052ZM6.16637 17.8336C3.87665 15.5439 3.21314 12.2422 4.18006 9.36489L2.75819 8.88708C1.61689 12.2834 2.39799 16.1866 5.10571 18.8943L6.16637 17.8336ZM11.8232 11.8232C11.8693 11.7772 11.9308 11.75 12 11.75V10.25C11.517 10.25 11.0784 10.4467 10.7626 10.7626L11.8232 11.8232ZM2.46967 3.53033L10.7626 11.8232L11.8232 10.7626L3.53033 2.46967L2.46967 3.53033ZM10.7626 11.8232L12.1768 13.2374L13.2374 12.1768L11.8232 10.7626L10.7626 11.8232ZM12.1768 13.2374L15.0052 16.0659L16.0659 15.0052L13.2374 12.1768L12.1768 13.2374ZM15.0052 16.0659L17.8336 18.8943L18.8943 17.8336L16.0659 15.0052L15.0052 16.0659ZM17.8336 18.8943L20.4697 21.5303L21.5303 20.4697L18.8943 17.8336L17.8336 18.8943ZM12.25 12C12.25 12.0693 12.2228 12.1307 12.1768 12.1768L13.2374 13.2374C13.5533 12.9216 13.75 12.483 13.75 12H12.25Z" fill="black"/>
</svg>
