<svg width="24" height="24" viewBox="0 0 24 24" fill="none" xmlns="http://www.w3.org/2000/svg">
<path d="M20.25 12C20.25 16.5563 16.5563 20.25 12 20.25V21.75C17.3848 21.75 21.75 17.3848 21.75 12H20.25ZM12 20.25C7.44365 20.25 3.75 16.5563 3.75 12H2.25C2.25 17.3848 6.61522 21.75 12 21.75V20.25ZM3.75 12C3.75 7.44365 7.44365 3.75 12 3.75V2.25C6.61522 2.25 2.25 6.61522 2.25 12H3.75ZM12 3.75C16.5563 3.75 20.25 7.44365 20.25 12H21.75C21.75 6.61522 17.3848 2.25 12 2.25V3.75ZM15.25 12C15.25 13.7949 13.7949 15.25 12 15.25V16.75C14.6234 16.75 16.75 14.6234 16.75 12H15.25ZM12 15.25C10.2051 15.25 8.75 13.7949 8.75 12H7.25C7.25 14.6234 9.37665 16.75 12 16.75V15.25ZM8.75 12C8.75 10.2051 10.2051 8.75 12 8.75V7.25C9.37665 7.25 7.25 9.37665 7.25 12H8.75ZM12 8.75C13.7949 8.75 15.25 10.2051 15.25 12H16.75C16.75 9.37665 14.6234 7.25 12 7.25V8.75ZM17.8336 5.10571L14.2981 8.64124L15.3588 9.7019L18.8943 6.16637L17.8336 5.10571ZM14.2981 15.3588L17.8336 18.8943L18.8943 17.8336L15.3588 14.2981L14.2981 15.3588ZM9.7019 8.64124L6.16637 5.10571L5.10571 6.16637L8.64124 9.7019L9.7019 8.64124ZM8.64124 14.2981L5.10571 17.8336L6.16637 18.8943L9.7019 15.3588L8.64124 14.2981Z" fill="black"/>
</svg>
