<svg width="24" height="24" viewBox="0 0 24 24" fill="none" xmlns="http://www.w3.org/2000/svg">
<path d="M13 16L13.75 16L13.75 16L13 16ZM13 8L12.25 8L12.25 8L13 8ZM17.2929 7.29289L17.8232 6.76256L17.8232 6.76256L17.2929 7.29289ZM20.7071 10.7071L21.2374 10.1768L21.2374 10.1768L20.7071 10.7071ZM4 5.75H12V4.25H4V5.75ZM12.25 6V16H13.75V6H12.25ZM3.75 16V6H2.25V16H3.75ZM5 16.25H4V17.75H5V16.25ZM12 16.25H9V17.75H12V16.25ZM2.25 16C2.25 16.9665 3.0335 17.75 4 17.75V16.25C3.86193 16.25 3.75 16.1381 3.75 16H2.25ZM12.25 16C12.25 16.1381 12.1381 16.25 12 16.25V17.75C12.9665 17.75 13.75 16.9665 13.75 16H12.25ZM12 5.75C12.1381 5.75 12.25 5.86193 12.25 6H13.75C13.75 5.0335 12.9665 4.25 12 4.25V5.75ZM4 4.25C3.0335 4.25 2.25 5.0335 2.25 6H3.75C3.75 5.86193 3.86193 5.75 4 5.75V4.25ZM13.75 16L13.75 8L12.25 8L12.25 16L13.75 16ZM14 7.75H16.5858V6.25H14V7.75ZM20.25 11.4142V16H21.75V11.4142H20.25ZM16.7626 7.82322L20.1768 11.2374L21.2374 10.1768L17.8232 6.76256L16.7626 7.82322ZM15 16.25H14V17.75H15V16.25ZM20 16.25H19V17.75H20V16.25ZM21.75 11.4142C21.75 10.9501 21.5656 10.505 21.2374 10.1768L20.1768 11.2374C20.2237 11.2843 20.25 11.3479 20.25 11.4142H21.75ZM16.5858 7.75C16.6521 7.75 16.7157 7.77634 16.7626 7.82322L17.8232 6.76256C17.495 6.43437 17.0499 6.25 16.5858 6.25V7.75ZM12.25 16C12.25 16.9665 13.0335 17.75 14 17.75V16.25C13.8619 16.25 13.75 16.1381 13.75 16H12.25ZM20.25 16C20.25 16.1381 20.1381 16.25 20 16.25V17.75C20.9665 17.75 21.75 16.9665 21.75 16H20.25ZM13.75 8C13.75 7.86193 13.8619 7.75 14 7.75V6.25C13.0335 6.25 12.25 7.0335 12.25 8H13.75ZM8.25 17C8.25 17.6904 7.69036 18.25 7 18.25V19.75C8.51878 19.75 9.75 18.5188 9.75 17H8.25ZM7 18.25C6.30964 18.25 5.75 17.6904 5.75 17H4.25C4.25 18.5188 5.48122 19.75 7 19.75V18.25ZM5.75 17C5.75 16.3096 6.30964 15.75 7 15.75V14.25C5.48122 14.25 4.25 15.4812 4.25 17H5.75ZM7 15.75C7.69036 15.75 8.25 16.3096 8.25 17H9.75C9.75 15.4812 8.51878 14.25 7 14.25V15.75ZM18.25 17C18.25 17.6904 17.6904 18.25 17 18.25V19.75C18.5188 19.75 19.75 18.5188 19.75 17H18.25ZM17 18.25C16.3096 18.25 15.75 17.6904 15.75 17H14.25C14.25 18.5188 15.4812 19.75 17 19.75V18.25ZM15.75 17C15.75 16.3096 16.3096 15.75 17 15.75V14.25C15.4812 14.25 14.25 15.4812 14.25 17H15.75ZM17 15.75C17.6904 15.75 18.25 16.3096 18.25 17H19.75C19.75 15.4812 18.5188 14.25 17 14.25V15.75Z" fill="black"/>
</svg>
