<svg width="24" height="24" viewBox="0 0 24 24" fill="none" xmlns="http://www.w3.org/2000/svg">
<path d="M5.54267 4.33377C5.72701 3.96284 5.57575 3.5127 5.20481 3.32836C4.83388 3.14403 4.38374 3.29529 4.1994 3.66623L5.54267 4.33377ZM4.1994 20.3338C4.38374 20.7047 4.83388 20.856 5.20481 20.6716C5.57575 20.4873 5.72701 20.0372 5.54267 19.6662L4.1994 20.3338ZM18.3284 19.6662C18.1441 20.0372 18.2953 20.4873 18.6663 20.6716C19.0372 20.856 19.4874 20.7047 19.6717 20.3338L18.3284 19.6662ZM19.6717 3.66623C19.4874 3.29529 19.0372 3.14403 18.6663 3.32836C18.2953 3.5127 18.1441 3.96284 18.3284 4.33377L19.6717 3.66623ZM9 8.25C8.58579 8.25 8.25 8.58579 8.25 9C8.25 9.41421 8.58579 9.75 9 9.75V8.25ZM11.2072 9.72528L10.4861 9.93132L10.4861 9.93132L11.2072 9.72528ZM12.7928 15.2747L12.0716 15.4808L12.0716 15.4808L12.7928 15.2747ZM15 16.75C15.4142 16.75 15.75 16.4142 15.75 16C15.75 15.5858 15.4142 15.25 15 15.25V16.75ZM16 9.75C16.4142 9.75 16.75 9.41421 16.75 9C16.75 8.58579 16.4142 8.25 16 8.25V9.75ZM14.4014 9.69842L14.9708 10.1865L14.9708 10.1865L14.4014 9.69842ZM9.59864 15.3016L10.1681 15.7897L10.1681 15.7897L9.59864 15.3016ZM8 15.25C7.58579 15.25 7.25 15.5858 7.25 16C7.25 16.4142 7.58579 16.75 8 16.75V15.25ZM3.75 12C3.75 9.2447 4.39543 6.6423 5.54267 4.33377L4.1994 3.66623C2.95139 6.17753 2.25 9.00793 2.25 12H3.75ZM5.54267 19.6662C4.39544 17.3577 3.75 14.7553 3.75 12H2.25C2.25 14.9921 2.95139 17.8225 4.1994 20.3338L5.54267 19.6662ZM20.1211 12C20.1211 14.7553 19.4757 17.3577 18.3284 19.6662L19.6717 20.3338C20.9197 17.8225 21.6211 14.9921 21.6211 12L20.1211 12ZM18.3284 4.33377C19.4757 6.6423 20.1211 9.2447 20.1211 12L21.6211 12C21.6211 9.00793 20.9197 6.17753 19.6717 3.66623L18.3284 4.33377ZM9 9.75H10.2457V8.25H9V9.75ZM10.4861 9.93132L12.0716 15.4808L13.5139 15.0687L11.9284 9.51924L10.4861 9.93132ZM13.7543 16.75H15V15.25H13.7543V16.75ZM12.0716 15.4808C12.2863 16.232 12.973 16.75 13.7543 16.75V15.25C13.6427 15.25 13.5446 15.176 13.5139 15.0687L12.0716 15.4808ZM10.2457 9.75C10.3573 9.75 10.4554 9.82399 10.4861 9.93132L11.9284 9.51924C11.7137 8.76796 11.027 8.25 10.2457 8.25V9.75ZM16 8.25H15.9199V9.75H16V8.25ZM13.8319 9.21032L9.0292 14.8135L10.1681 15.7897L14.9708 10.1865L13.8319 9.21032ZM8.08013 15.25H8V16.75H8.08013V15.25ZM9.0292 14.8135C8.79172 15.0905 8.44504 15.25 8.08013 15.25V16.75C8.88292 16.75 9.64563 16.3992 10.1681 15.7897L9.0292 14.8135ZM15.9199 8.25C15.1171 8.25 14.3544 8.6008 13.8319 9.21032L14.9708 10.1865C15.2083 9.90945 15.555 9.75 15.9199 9.75V8.25Z" fill="black"/>
</svg>
