<svg width="24" height="24" viewBox="0 0 24 24" fill="none" xmlns="http://www.w3.org/2000/svg">
<path d="M7.58074 15.8735C7.28784 16.1664 7.28784 16.6413 7.58074 16.9342C7.87363 17.2271 8.34851 17.2271 8.6414 16.9342L7.58074 15.8735ZM15.3589 16.9342C15.6518 17.2271 16.1267 17.2271 16.4196 16.9342C16.7125 16.6413 16.7125 16.1664 16.4196 15.8735L15.3589 16.9342ZM12.0002 19.25C11.5859 19.25 11.2502 19.5858 11.2502 20C11.2502 20.4142 11.5859 20.75 12.0002 20.75V19.25ZM12.0102 20.75C12.4244 20.75 12.7602 20.4142 12.7602 20C12.7602 19.5858 12.4244 19.25 12.0102 19.25V20.75ZM4.3988 12.3986C4.1059 12.6915 4.1059 13.1664 4.3988 13.4593C4.69169 13.7522 5.16656 13.7522 5.45946 13.4593L4.3988 12.3986ZM18.5409 13.4593C18.8338 13.7522 19.3087 13.7522 19.6016 13.4593C19.8945 13.1664 19.8945 12.6915 19.6016 12.3986L18.5409 13.4593ZM0.863225 8.86307C0.570331 9.15596 0.570331 9.63083 0.863225 9.92373C1.15612 10.2166 1.63099 10.2166 1.92388 9.92373L0.863225 8.86307ZM22.0764 9.92373C22.3693 10.2166 22.8442 10.2166 23.1371 9.92373C23.43 9.63084 23.43 9.15596 23.1371 8.86307L22.0764 9.92373ZM8.6414 16.9342C10.4964 15.0792 13.5039 15.0792 15.3589 16.9342L16.4196 15.8735C13.9788 13.4328 10.0215 13.4328 7.58074 15.8735L8.6414 16.9342ZM12.0002 20.75H12.0102V19.25H12.0002V20.75ZM5.45946 13.4593C9.07181 9.84693 14.9286 9.84693 18.5409 13.4593L19.6016 12.3986C15.4035 8.20048 8.59693 8.20048 4.3988 12.3986L5.45946 13.4593ZM1.92388 9.92373C7.48885 4.35876 16.5115 4.35876 22.0764 9.92373L23.1371 8.86307C16.9863 2.71231 7.01398 2.71231 0.863225 8.86307L1.92388 9.92373Z" fill="black"/>
</svg>
